<?xml version="1.0" standalone="no"?>
<!DOCTYPE svg PUBLIC "-//W3C//DTD SVG 20010904//EN"
 "http://www.w3.org/TR/2001/REC-SVG-20010904/DTD/svg10.dtd">
<svg version="1.0" xmlns="http://www.w3.org/2000/svg"
 width="700.000000pt" height="700.000000pt" viewBox="0 0 700.000000 700.000000"
 preserveAspectRatio="xMidYMid meet">
<metadata>
Created by potrace 1.14, written by Peter Selinger 2001-2017
</metadata>
<g transform="translate(0.000000,700.000000) scale(0.100000,-0.100000)"
fill="#000000" stroke="none">
<path d="M1095 6993 c-35 -10 -86 -50 -113 -90 l-27 -38 -3 -546 c-3 -605 -5
-586 63 -653 19 -19 53 -40 75 -46 26 -7 217 -10 577 -8 l538 3 43 29 c50 34
87 100 91 163 4 72 -25 117 -172 265 -76 76 -137 139 -137 142 0 7 151 82 263
130 166 71 452 161 577 181 19 3 42 8 50 10 34 10 182 31 295 42 103 10 410
10 545 0 214 -16 513 -78 725 -150 1165 -396 1991 -1450 2092 -2672 15 -169 8
-504 -13 -645 -80 -551 -270 -1023 -582 -1443 -105 -143 -165 -211 -312 -358
-496 -496 -1121 -794 -1850 -880 -167 -20 -643 -16 -720 6 -8 3 -31 6 -50 9
-30 3 -107 17 -176 30 -462 90 -937 318 -1333 639 -87 71 -325 304 -395 387
-344 408 -592 926 -680 1420 -24 130 -25 141 -32 195 -3 28 -7 64 -9 80 -3 17
-7 98 -11 180 -7 188 -14 216 -68 269 -90 91 -235 76 -311 -32 l-30 -44 0
-146 c1 -81 4 -178 8 -217 3 -38 9 -97 12 -130 11 -103 45 -284 81 -429 183
-736 599 -1384 1199 -1871 81 -66 329 -245 339 -245 3 0 40 -22 83 -48 170
-106 502 -254 718 -321 162 -50 356 -96 490 -115 23 -4 50 -8 62 -10 12 -3 53
-8 90 -11 37 -4 82 -9 98 -12 59 -9 532 -12 610 -3 166 17 201 21 250 30 28 5
61 11 75 14 85 14 118 21 240 51 831 207 1574 732 2054 1455 116 175 213 350
289 523 10 20 24 53 32 72 91 205 193 572 229 825 26 180 30 255 31 515 0 293
-6 374 -46 610 -86 515 -310 1039 -624 1463 -271 366 -611 681 -984 912 -114
71 -138 84 -281 156 -365 183 -742 293 -1175 346 -171 20 -658 17 -805 -6 -14
-2 -46 -7 -71 -10 -54 -8 -84 -13 -159 -27 -93 -17 -103 -19 -185 -41 -44 -11
-84 -21 -90 -22 -188 -43 -555 -193 -766 -313 -42 -24 -79 -43 -82 -43 -4 0
-107 99 -229 221 -121 121 -235 227 -251 236 -32 16 -118 25 -152 16z"/>
<path d="M3470 5019 c-19 -3 -47 -11 -61 -17 -37 -15 -95 -86 -106 -130 -5
-20 -8 -347 -8 -727 1 -761 -1 -728 65 -792 61 -59 42 -58 810 -58 776 0 728
-4 794 62 78 77 78 209 0 286 -65 65 -32 62 -668 64 -318 1 -580 4 -583 7 -3
2 -5 257 -5 566 0 309 -4 576 -9 592 -28 99 -132 166 -229 147z"/>
</g>
</svg>
